<svg id="Laag_1" data-name="Laag 1" xmlns="http://www.w3.org/2000/svg" viewBox="0 0 21 31"><title>Tekengebied 4</title><path id="Path_1" data-name="Path 1" d="M11.42,6.45A9.34,9.34,0,0,0,2.29,14H1.17a1,1,0,0,0-.94.94h0v1.88a.94.94,0,0,0,.94.93H2.29A9.32,9.32,0,1,0,11.42,6.45Zm0,16.88a7.5,7.5,0,1,1,7.45-7.55v.05A7.48,7.48,0,0,1,11.42,23.33Zm0,2.81a10.18,10.18,0,0,0,5.26-1.47l-1.54,6.16H7.69L6.16,24.66a10,10,0,0,0,5.26,1.48Zm0-20.62A10,10,0,0,0,6.16,7L7.69.83h7.45L16.68,7A10.18,10.18,0,0,0,11.42,5.52ZM17,14.89v1.88H10.48V10.2h1.87v4.69Z"/></svg>