<svg version="1" xmlns="http://www.w3.org/2000/svg" width="933.333" height="933.333" viewBox="0 0 700.000000 700.000000"><path d="M350.8 219.4c-.1.2-8.4.7-18.3 1-9.9.4-19.1.9-20.5 1-1.4.2-5.6.7-9.5 1.1-3.8.4-7.2.8-7.5 1-.3.1-2.7.6-5.5 1-5.5.7-21.3 4.1-26 5.5-1.6.5-5.5 1.7-8.5 2.6-40.5 12-66.6 35.4-81 72.4-.8 1.9-1.7 3.7-2.1 4-.4.3-19.4.5-42.3.4-22.9 0-41.7.2-41.7.5-.1.4-.2 15.6-.3 33.8-.1 21.8.2 33.3.9 33.4.5.1 18.7.2 40.4.3l39.5.1 1.6 6.5c8.4 33.1 29.6 59.7 58.9 73.7 14.6 7 39 14.7 53.1 16.9 1.9.3 6 .9 9 1.4 5.1.8 8.1 1.2 19.3 2.5 18.4 2.1 64.1 2.1 81.2 0 2.2-.3 6-.7 8.5-1 28.5-3.2 54.5-10.7 74.9-21.6 28.5-15.2 46.9-38.9 55-70.9l1.9-7.5h40.1c22 0 40.1-.2 40.2-.5.3-1.4.4-65.6.2-66.6-.3-.7-13.4-1-41.1-.9-22.4.1-41.5-.2-42.4-.7-.9-.4-2.2-2.5-2.9-4.5-6.1-18.7-20.9-38.7-37.9-51.3-17-12.6-47.7-24-76.5-28.4-1.6-.3-4.3-.7-6-1-1.6-.3-5.7-.8-9-1.1-3.3-.4-7.3-.9-9-1.1-1.6-.2-10-.6-18.5-.9-8.5-.4-16-.8-16.7-1-.6-.2-1.3-.2-1.5-.1zm18.7 41.1c7.3 1.1 23.4 6.5 29.2 9.7 14.8 8.1 26.7 19.8 34.5 34l2.7 4.8-2.7.1c-1.5.1-39.9.2-85.4.3l-82.6.1 3.6-6.9c4.1-7.7 14.7-19.4 22.7-24.8 13.2-9 29.7-15.4 44.6-17.3 3-.4 5.5-.8 5.7-1 .5-.5 23.6.3 27.7 1zm69.5 122c-7.4 21.4-22.8 38.6-43.5 48.5-7.3 3.5-20.9 7.5-29 8.6-7.7 1-25.4 1-32.5 0-25-3.5-47.9-17.6-61.1-37.6-4.3-6.4-10.9-20.9-10.9-23.8 0-.4 40.2-.7 89.4-.7h89.3l-1.7 5z"/></svg>