<svg id="Laag_1" data-name="Laag 1" xmlns="http://www.w3.org/2000/svg" viewBox="0 0 196 43"><defs><style>.cls-1,.cls-2{isolation:isolate;}.cls-2{font-size:23px;font-family:LibreBaskerville-Bold, Libre Baskerville;font-weight:700;}.cls-10,.cls-2{fill:#414141;}.cls-3{letter-spacing:-0.08em;}.cls-4{letter-spacing:-0.01em;}.cls-5{letter-spacing:-0.02em;}.cls-6{letter-spacing:-0.09em;}.cls-7{letter-spacing:-0.03em;}.cls-8{letter-spacing:0em;}.cls-11,.cls-9{fill:#e6cf88;}.cls-11{stroke:#414141;stroke-miterlimit:10;stroke-width:0.5px;}.cls-12{fill:#3c3c3b;}.cls-13{fill:#1d1d1b;}.cls-14{fill:#e6ba33;}</style></defs><title>Tekengebied 2</title><g id="Wolvega_Watchmakers" data-name="Wolvega Watchmakers" class="cls-1"><text class="cls-2" transform="translate(29.44 19.16)"><tspan class="cls-3">W</tspan><tspan x="26.45" y="0">o</tspan><tspan class="cls-4" x="41.63" y="0">l</tspan><tspan class="cls-5" x="49.5" y="0">v</tspan><tspan x="63.36" y="0">ega</tspan></text><text class="cls-2" transform="translate(29.44 42.16)"><tspan class="cls-6">W</tspan><tspan x="26.24" y="0">atchma</tspan><tspan class="cls-7" x="116.26" y="0">k</tspan><tspan class="cls-8" x="130.91" y="0">ers</tspan></text></g><path class="cls-9" d="M25.64,29.28H24.32V25.76h1.32A5,5,0,0,1,25.64,29.28Z"/><rect class="cls-9" x="24.32" y="25.76" width="1.32" height="3.51"/><path class="cls-9" d="M7.28,41.88a22.44,22.44,0,0,0,10.53,0,1.12,1.12,0,0,0,1.05-.75l1.74-5.07H4.49l1.74,5.07A1.12,1.12,0,0,0,7.28,41.88Z"/><path class="cls-9" d="M17.81,13.66a22.31,22.31,0,0,0-10.53,0,1.12,1.12,0,0,0-1,.75L4.49,19.48H20.6l-1.74-5.07A1.12,1.12,0,0,0,17.81,13.66Z"/><circle class="cls-9" cx="12.55" cy="27.77" r="12.18" transform="translate(-17.24 34.2) rotate(-77.87)"/><circle class="cls-9" cx="12.55" cy="27.77" r="11.58"/><path class="cls-10" d="M17.32,2.62V15.06a26.88,26.88,0,0,1-4.83.37,24.78,24.78,0,0,1-4.72-.37V2.62a.7.7,0,0,1,.71-.7h8.13A.7.7,0,0,1,17.32,2.62Z"/><path class="cls-11" d="M25.64,25.76h-1.1A12.12,12.12,0,0,0,20.2,18.3l-1.34-3.89a1.12,1.12,0,0,0-1.05-.75,22.31,22.31,0,0,0-10.53,0,1.12,1.12,0,0,0-1,.75L4.89,18.3a12.18,12.18,0,0,0,0,18.94l1.34,3.89a1.12,1.12,0,0,0,1,.75,22.44,22.44,0,0,0,10.53,0,1.12,1.12,0,0,0,1.05-.75l1.34-3.89a12.19,12.19,0,0,0,4.42-8h1A5,5,0,0,0,25.64,25.76Z"/><circle class="cls-12" cx="12.55" cy="27.77" r="10.08"/><circle class="cls-13" cx="12.55" cy="27.77" r="9.64"/><path class="cls-14" d="M9.27,34,8.14,36l-.48-.28,1.13-2Zm7-12.17,1.14-2L17,19.58l-1.13,2Zm-10,9.26-1.91,1.1.28.48,1.92-1.11Zm12.57-6.62,1.91-1.1-.28-.48L18.54,24ZM5.42,27.79v-.3H3.25v.56H5.43Zm14.24-.3v.56h2.19v-.56Zm-1.12,4.06,1.92,1.11.28-.48-1.91-1.1ZM6.55,24,4.63,22.88l-.28.48,1.91,1.1Zm9.56,9.84-.09.05-.2.11L17,36l.49-.28-1.14-2ZM9.27,21.54l-1.13-2-.48.27,1.13,2Zm3,13.23v2.3h.55v-2.3h-.55Zm0-14h.55v-2.3h-.55Z"/><path class="cls-9" d="M13,27.77a.47.47,0,1,1-.46-.47A.47.47,0,0,1,13,27.77Z"/><polygon class="cls-14" points="14.92 23.27 15.73 22.21 15.23 23.45 11.98 28.96 11.79 28.85 14.92 23.27"/><path class="cls-14" d="M12.78,27.36a.47.47,0,1,1-.64.17A.47.47,0,0,1,12.78,27.36Z"/><polygon class="cls-14" points="18.1 24.51 19.54 23.8 18.19 24.67 11.44 28.47 11.38 28.36 18.1 24.51"/><path class="cls-14" d="M12.94,28a.47.47,0,0,1-.64.17.48.48,0,0,1-.17-.65.47.47,0,0,1,.64-.16A.46.46,0,0,1,12.94,28Z"/><polygon class="cls-14" points="9.48 26.27 8.76 25.57 9.72 25.85 13.75 28.3 13.6 28.56 9.48 26.27"/></svg>