<svg id="Laag_1" data-name="Laag 1" xmlns="http://www.w3.org/2000/svg" viewBox="0 0 27 41"><defs><style>.cls-1,.cls-3{fill:#e6cf88;}.cls-2{fill:#414141;}.cls-3{stroke:#414141;stroke-miterlimit:10;stroke-width:0.5px;}.cls-4{fill:#3c3c3b;}.cls-5{fill:#1d1d1b;}.cls-6{fill:#e6ba33;}</style></defs><title>Tekengebied 3</title><path class="cls-1" d="M26,27.75H24.64V24.23H26A5,5,0,0,1,26,27.75Z"/><rect class="cls-1" x="24.64" y="24.23" width="1.32" height="3.51"/><path class="cls-1" d="M7.6,40.35a22.44,22.44,0,0,0,10.53,0,1.12,1.12,0,0,0,1.05-.75l1.74-5.07H4.81L6.55,39.6A1.12,1.12,0,0,0,7.6,40.35Z"/><path class="cls-1" d="M18.13,12.13a22.18,22.18,0,0,0-10.53,0,1.12,1.12,0,0,0-1,.75L4.81,17.94H20.92l-1.74-5.06A1.12,1.12,0,0,0,18.13,12.13Z"/><circle class="cls-1" cx="12.86" cy="26.24" r="12.18" transform="translate(-15.49 33.3) rotate(-77.87)"/><circle class="cls-1" cx="12.86" cy="26.24" r="11.58"/><path class="cls-2" d="M17.64,1.09V13.52a26.88,26.88,0,0,1-4.83.37,24.78,24.78,0,0,1-4.72-.37V1.09A.71.71,0,0,1,8.8.38h8.13A.71.71,0,0,1,17.64,1.09Z"/><path class="cls-3" d="M26,24.23h-1.1a12.12,12.12,0,0,0-4.34-7.46l-1.34-3.89a1.12,1.12,0,0,0-1.05-.75,22.18,22.18,0,0,0-10.53,0,1.12,1.12,0,0,0-1,.75L5.21,16.77a12.17,12.17,0,0,0,0,18.93l1.34,3.9a1.12,1.12,0,0,0,1,.75,22.44,22.44,0,0,0,10.53,0,1.12,1.12,0,0,0,1.05-.75l1.34-3.9a12.14,12.14,0,0,0,4.42-8h1A5,5,0,0,0,26,24.23Z"/><circle class="cls-4" cx="12.86" cy="26.24" r="10.08"/><circle class="cls-5" cx="12.86" cy="26.24" r="9.64"/><path class="cls-6" d="M9.59,32.46l-1.13,2L8,34.15l1.14-2Zm7-12.17,1.14-2L17.27,18l-1.13,2Zm-10,9.25L4.67,30.65l.28.48L6.87,30Zm12.57-6.61,1.91-1.1-.28-.48-1.92,1.1ZM5.74,26.26V26H3.57v.55H5.75ZM20,26v.55h2.18V26ZM18.86,30l1.92,1.11.28-.48-1.91-1.11Zm-12-7.57L5,21.35l-.28.48,1.91,1.1Zm9.56,9.85-.09.05-.2.11,1.13,2,.49-.28-1.14-2ZM9.59,20,8.46,18,8,18.32l1.14,2Zm3,13.23v2.3h.55v-2.3h-.55Zm0-14h.55v-2.3h-.55Z"/><path class="cls-1" d="M13.33,26.24a.47.47,0,1,1-.47-.47A.47.47,0,0,1,13.33,26.24Z"/><polygon class="cls-6" points="15.24 21.74 16.05 20.68 15.55 21.91 12.3 27.43 12.11 27.32 15.24 21.74"/><path class="cls-6" d="M13.1,25.83a.47.47,0,0,1,.17.64.46.46,0,0,1-.64.17.47.47,0,1,1,.47-.81Z"/><polygon class="cls-6" points="18.42 22.98 19.86 22.27 18.51 23.14 11.75 26.93 11.7 26.83 18.42 22.98"/><path class="cls-6" d="M13.26,26.48a.47.47,0,1,1-.17-.64A.46.46,0,0,1,13.26,26.48Z"/><polygon class="cls-6" points="9.8 24.74 9.08 24.04 10.04 24.32 14.07 26.76 13.92 27.02 9.8 24.74"/></svg>